<svg width="100" height="100" viewBox="0 0 100 100" fill="none" xmlns="http://www.w3.org/2000/svg">
  <!-- Honey jar lid -->
  <path d="M25 8 C25 8 25 6 26 5 L74 5 C75 6 75 8 75 8 L75 12 C75 13 74 14 73 14 L27 14 C26 14 25 13 25 12 Z" fill="#C5E1A5" stroke="#7CB342" stroke-width="2"/>

  <!-- Jar opening -->
  <path d="M23 14 C23 13 24 12 25 12 L75 12 C76 12 77 13 77 14 L77 18 C77 18 76 19 75 19 L25 19 C24 19 23 18 23 18 Z" fill="#C5E1A5" stroke="#7CB342" stroke-width="2"/>

  <!-- Main jar body -->
  <path d="M23 18 L26 22 C26 22 26 70 26 70 C26 73 28 75 31 75 L69 75 C72 75 74 73 74 70 L74 22 L77 18 Z" fill="#FFF9C4" stroke="#7CB342" stroke-width="2"/>

  <!-- Honey drip -->
  <path d="M35 19 C35 19 34 21 34 22 C34 23 34 25 34 26 C34 27 36 28 37 28 C37 28 37 22 37 22" fill="#F9A825"/>

  <!-- Honeycomb hexagons -->
  <g transform="translate(50, 45) scale(0.6)">
    <path d="M0,-10 L9,-5 L9,5 L0,10 L-9,5 L-9,-5 Z" fill="none" stroke="#FFA726" stroke-width="2"/>
    <path d="M0,-30 L9,-25 L9,-15 L0,-10 L-9,-15 L-9,-25 Z" fill="none" stroke="#FFA726" stroke-width="2"/>
    <path d="M-15,5 L-6,10 L-6,20 L-15,25 L-24,20 L-24,10 Z" fill="none" stroke="#FFA726" stroke-width="2"/>
    <path d="M15,5 L24,10 L24,20 L15,25 L6,20 L6,10 Z" fill="none" stroke="#FFA726" stroke-width="2"/>
  </g>

  <!-- Bee -->
  <g transform="translate(72, 25)">
    <ellipse cx="0" cy="0" rx="8" ry="10" fill="#FFA726"/>
    <rect x="-8" y="-3" width="16" height="2" rx="1" fill="#5D4037"/>
    <rect x="-8" y="2" width="16" height="2" rx="1" fill="#5D4037"/>
    <ellipse cx="-5" cy="-6" rx="6" ry="8" fill="#FFE082" opacity="0.7" transform="rotate(-20 -5 -6)"/>
    <ellipse cx="5" cy="-6" rx="6" ry="8" fill="#FFE082" opacity="0.7" transform="rotate(20 5 -6)"/>
  </g>
</svg>
